<?xml version="1.0" encoding="utf-8"?>
<!-- Generator: Adobe Illustrator 25.2.3, SVG Export Plug-In . SVG Version: 6.00 Build 0)  -->
<svg version="1.1" id="Layer_1" xmlns="http://www.w3.org/2000/svg" xmlns:xlink="http://www.w3.org/1999/xlink" x="0px" y="0px"
	 viewBox="0 0 321.4 254.4" style="enable-background:new 0 0 321.4 254.4;" xml:space="preserve">
<style type="text/css">
	.st0{fill:#FFFFFF;}
</style>
<g>
	<path class="st0" d="M149.3,122.4c0,4-3,6.5-8.1,6.5h-4v-12.5c0.7-0.1,2.2-0.3,4.6-0.3C146.5,116.1,149.3,118.2,149.3,122.4z
		 M271.6,127.2c0,8.6-3.4,16.7-9.4,22.8l-13.6,13.6v19.3c0,17.7-14.5,32.2-32.2,32.2h-19.3l-13.6,13.6c-6.1,6.1-14.2,9.4-22.8,9.4
		s-16.7-3.4-22.8-9.4l-13.6-13.6H105c-8.6,0-16.7-3.4-22.8-9.4c-6.1-6.1-9.4-14.2-9.4-22.8v-19.3L59.2,150
		c-6.1-6.1-9.4-14.2-9.4-22.8s3.4-16.7,9.4-22.8l13.6-13.6V71.5c0-17.8,14.5-32.2,32.2-32.2h19.3l13.6-13.6
		c6.1-6.1,14.2-9.4,22.8-9.4s16.7,3.4,22.8,9.4l13.6,13.6h19.3c8.6,0,16.7,3.4,22.8,9.4c6.1,6.1,9.4,14.2,9.4,22.8v19.3l13.6,13.6
		C268.3,110.5,271.6,118.6,271.6,127.2z M119.3,108.8H91.6v45.3h10.3v-18.2h16.3v-8.3h-16.3v-10.3h17.4L119.3,108.8L119.3,108.8
		L119.3,108.8z M161.2,154.1c-0.9-1.7-2.3-7.6-3.7-12.8c-1.1-4.2-2.9-7.2-6.1-8.5v-0.2c3.9-1.4,8-5.4,8-11.2c0-4.2-1.5-7.3-4.2-9.5
		c-3.2-2.5-7.9-3.6-14.6-3.6c-5.4,0-10.3,0.4-13.6,0.9v44.7h10.1v-17.8h3.1c4.2,0.1,6.1,1.6,7.3,7.3c1.3,5.6,2.4,9.3,3.1,10.5
		L161.2,154.1L161.2,154.1z M195.7,145.7h-18.6v-10.8h16.7v-8.3h-16.7v-9.4h17.7v-8.4h-28V154h28.9V145.7L195.7,145.7z M231.6,145.7
		H213v-10.8h16.7v-8.3H213v-9.4h17.7v-8.4h-27.9V154h28.9L231.6,145.7L231.6,145.7z"/>
</g>
</svg>
