<?xml version="1.0" encoding="utf-8"?>
<!-- Generator: Adobe Illustrator 25.2.3, SVG Export Plug-In . SVG Version: 6.00 Build 0)  -->
<svg version="1.1" id="Layer_1" xmlns="http://www.w3.org/2000/svg" xmlns:xlink="http://www.w3.org/1999/xlink" x="0px" y="0px"
	 viewBox="0 0 253.3 254.4" style="enable-background:new 0 0 253.3 254.4;" xml:space="preserve">
<style type="text/css">
	.st0{fill:#FFFFFF;}
</style>
<g>
	<path class="st0" d="M69.4,63.3l85.8-23.4l-4.5-9.2c-3-6-10.2-8.4-16.2-5.5L57.6,63.3H69.4z"/>
	<path class="st0" d="M181.8,40.6c-1.1,0-2.1,0.1-3.2,0.4l-20.2,5.5L96.9,63.3h69.9h30.4l-3.8-13.8C192,44.1,187.1,40.6,181.8,40.6z
		"/>
	<path class="st0" d="M209.8,71.8H207h-3.7h-3.7H171H65.9H52.1H40.5h-2.2h-7.2c-3.8,0-7.2,1.8-9.4,4.5c-1,1.3-1.8,2.8-2.2,4.4
		c-0.3,1-0.4,2.1-0.4,3.2v1.4v13.8v119.4c0,6.7,5.4,12.1,12.1,12.1h178.6c6.7,0,12.1-5.4,12.1-12.1v-33.7h-71.7
		c-11.3,0-20.5-9.2-20.5-20.5v-11.1v-3.7v-3.7v-8.3c0-5.6,2.2-10.6,5.8-14.3c3.2-3.3,7.5-5.5,12.3-6.1c0.8-0.1,1.6-0.1,2.4-0.1h61.7
		h3.7h3.7h2.6v-33C221.9,77.2,216.5,71.8,209.8,71.8z"/>
	<path class="st0" d="M230.3,128.4c-1.2-1.1-2.6-2-4.2-2.5c-1.2-0.4-2.5-0.7-3.9-0.7h-0.3h-0.2h-3.7h-13.5h-54.2
		c-6.7,0-12.1,5.4-12.1,12.1v6v3.7v3.7v13.4c0,6.7,5.4,12.1,12.1,12.1h71.7h0.3c1.4,0,2.7-0.2,3.9-0.7c1.6-0.5,3-1.4,4.2-2.5
		c2.4-2.2,3.9-5.4,3.9-8.9v-26.9C234.3,133.8,232.7,130.6,230.3,128.4z M175.4,153.1c0,3.3-2.7,6-6,6h-4c-3.3,0-6-2.7-6-6v-4
		c0-1.9,0.9-3.6,2.3-4.7c1-0.8,2.3-1.3,3.7-1.3h1h3c3.3,0,6,2.7,6,6V153.1L175.4,153.1z"/>
</g>
</svg>
