<?xml version="1.0" encoding="utf-8"?>
<!-- Generator: Adobe Illustrator 25.2.3, SVG Export Plug-In . SVG Version: 6.00 Build 0)  -->
<svg version="1.1" id="Layer_1" xmlns="http://www.w3.org/2000/svg" xmlns:xlink="http://www.w3.org/1999/xlink" x="0px" y="0px"
	 viewBox="0 0 253.3 254.4" style="enable-background:new 0 0 253.3 254.4;" xml:space="preserve">
<style type="text/css">
	.st0{fill:#FFFFFF;}
</style>
<g>
	<path class="st0" d="M242.7,47.1l-2.5-1.3c0.4-2.1,0.6-4.3,0.5-6.5l2.7-0.9c3.7-1.2,5.8-5.2,4.6-9c-1.2-3.7-5.2-5.8-9-4.6l-2.7,0.9
		c-1.2-1.8-2.6-3.5-4.2-4.9l1.3-2.5c1.8-3.5,0.4-7.8-3.1-9.6s-7.8-0.4-9.6,3.1l-1.3,2.5c-2.1-0.4-4.3-0.6-6.5-0.5l-0.9-2.7
		c-1.2-3.7-5.2-5.8-9-4.6c-3.7,1.2-5.8,5.2-4.6,9l0.9,2.7c-1.8,1.2-3.5,2.6-4.9,4.2l-2.5-1.3c-3.5-1.8-7.8-0.4-9.6,3.1
		c-1.8,3.5-0.4,7.8,3.1,9.6l2.5,1.3c-0.4,2.1-0.6,4.3-0.5,6.5l-2.7,0.9c-3.7,1.2-5.8,5.2-4.6,9c1,3,3.8,4.9,6.8,4.9
		c0.7,0,1.5-0.1,2.2-0.3l2.7-0.9c1.2,1.8,2.6,3.5,4.2,4.9l-1.3,2.5c-1.8,3.5-0.4,7.8,3.1,9.6c1,0.5,2.1,0.8,3.2,0.8
		c2.6,0,5.1-1.4,6.3-3.9l1.3-2.5c1.8,0.4,3.5,0.6,5.3,0.6c0.4,0,0.8,0,1.1,0l0.9,2.7c1,3,3.8,4.9,6.8,4.9c0.7,0,1.5-0.1,2.2-0.3
		c3.7-1.2,5.8-5.2,4.6-9l-0.9-2.7c1.8-1.2,3.5-2.6,4.9-4.2l2.5,1.3c1,0.5,2.1,0.8,3.2,0.8c2.6,0,5.1-1.4,6.3-3.9
		C247.5,53.2,246.2,48.9,242.7,47.1L242.7,47.1z M203,34.8c2.2-4.3,6.6-6.8,11.1-6.8c1.9,0,3.8,0.4,5.6,1.4
		c6.1,3.1,8.5,10.6,5.4,16.7c-3.1,6.1-10.6,8.5-16.7,5.4C202.3,48.4,199.9,40.9,203,34.8L203,34.8z"/>
	<path class="st0" d="M121.5,144.2c0-6.2-5-11.2-11.2-11.2c-6.2,0-11.2,5-11.2,11.2c0,6.2,5,11.2,11.2,11.2
		C116.5,155.4,121.5,150.4,121.5,144.2z"/>
	<path class="st0" d="M110.3,102.8c-22.8,0-41.4,18.6-41.4,41.4c0,10.8,4.1,20.6,10.9,28c3-4.5,7-8.3,11.6-11
		c-4-4.5-6.5-10.5-6.5-17c0-14,11.4-25.5,25.5-25.5s25.5,11.4,25.5,25.5c0,6.5-2.5,12.5-6.5,17c1.1,0.6,2.1,1.3,3.1,2.1
		c3.3,2.5,6.2,5.5,8.5,8.9c6.8-7.4,10.9-17.2,10.9-28C151.7,121.4,133.1,102.8,110.3,102.8L110.3,102.8z"/>
	<path class="st0" d="M110.3,170.2c-7.9,0-15.1,4.1-19.2,10.7c5.7,3,12.3,4.7,19.2,4.7c6.9,0,13.5-1.7,19.2-4.7
		C125.4,174.4,118.1,170.2,110.3,170.2L110.3,170.2z"/>
	<path class="st0" d="M199.1,123c-4.5-1.2-7.7-4.1-9.3-8.4c-0.7-1.9-1.5-3.7-2.3-5.6c-1.9-4.2-1.7-8.5,0.6-12.6
		c5-8.6,3.6-19.6-3.5-26.6c-7-7-18-8.5-26.6-3.5c-4,2.3-8.3,2.5-12.6,0.6c-1.8-0.8-3.7-1.6-5.6-2.3c-4.3-1.6-7.2-4.8-8.4-9.3
		C129,45.7,120.2,39,110.3,39S91.6,45.7,89,55.4c-1.2,4.5-4.1,7.7-8.4,9.3c-1.9,0.7-3.7,1.5-5.6,2.3c-4.2,1.9-8.5,1.7-12.6-0.6
		c-8.6-5-19.6-3.6-26.6,3.5c-8.6,8.6-8.6,22.5,0,31.1l0.9,0.9c-3.7,6.4-6.6,13.3-8.5,20.5H27c-12.1,0-22,9.9-22,22
		c0,10,6.7,18.7,16.4,21.3c4.5,1.2,7.7,4.1,9.3,8.4c0.7,1.9,1.5,3.7,2.3,5.6c1.9,4.2,1.7,8.5-0.6,12.6c-5,8.6-3.6,19.6,3.5,26.6
		c7,7,18,8.5,26.6,3.5c4-2.3,8.3-2.5,12.6-0.6c1.8,0.8,3.7,1.6,5.6,2.3c4.3,1.6,7.2,4.8,8.4,9.3c2.6,9.6,11.3,16.4,21.3,16.4
		s18.7-6.7,21.3-16.4c1.2-4.5,4.1-7.7,8.4-9.3c1.9-0.7,3.7-1.5,5.6-2.3c4.2-1.9,8.5-1.7,12.6,0.6c8.6,5,19.6,3.6,26.6-3.5
		c7-7,8.5-18,3.5-26.6c-2.3-4-2.5-8.3-0.6-12.6c0.8-1.8,1.6-3.7,2.3-5.6c1.6-4.3,4.8-7.2,9.3-8.4c9.6-2.6,16.4-11.3,16.4-21.3
		C215.5,134.3,208.8,125.5,199.1,123L199.1,123z M144.4,188.2c-0.9,1.2-2.1,2.1-3.6,2.6c0,0,0,0,0,0c-8.8,5.8-19.3,9.1-30.5,9.1
		c-30.7,0-55.7-25-55.7-55.7s25-55.7,55.7-55.7s55.7,25,55.7,55.7C166,162.1,157.5,178,144.4,188.2L144.4,188.2z"/>
</g>
</svg>
