<?xml version="1.0" encoding="utf-8"?>
<!-- Generator: Adobe Illustrator 25.2.3, SVG Export Plug-In . SVG Version: 6.00 Build 0)  -->
<svg version="1.1" id="Layer_1" xmlns="http://www.w3.org/2000/svg" xmlns:xlink="http://www.w3.org/1999/xlink" x="0px" y="0px"
	 viewBox="0 0 321.4 254.4" style="enable-background:new 0 0 321.4 254.4;" xml:space="preserve">
<style type="text/css">
	.st0{fill:#FFFFFF;}
</style>
<g>
	<g>
		<g>
			<path class="st0" d="M305.3,192.4l-9.4-16.2l9.4-16.2l-0.1-0.4c2.1-3.1,3.4-6.6,3.8-10.3c0-5.2-2.7-9.1-11.3-9.1h-71.5
				c-2.8,0-5.5,1-7.6,2.9l-0.4,0.4c-2.1,2.1-3.3,5-3.3,8v5h37c6.1-0.1,12,2.2,16.4,6.4l0.4,0.4c4.5,4.5,7,10.5,7,16.9v31.8h22.1
				c8.5,0,11.3-3.9,11.3-9.1C308.7,199,307.4,195.5,305.3,192.4z"/>
		</g>
	</g>
	<g>
		<g>
			<path class="st0" d="M103,143.7l-0.4-0.4c-2.1-1.9-4.8-2.9-7.6-2.9H23.6c-8.5,0-11.3,3.9-11.3,9.1c0.4,3.7,1.7,7.3,3.8,10.3
				l9.4,16.2l-9.4,16.1l-0.1,0.1c-2.1,3.1-3.4,6.6-3.8,10.3c0,5.2,2.7,9.1,11.3,9.1h22.1v-31.8c0.1-6.2,2.5-12.1,6.9-16.5
				c4.5-4.5,10.6-6.9,16.9-6.9h37v-4.8C106.4,148.6,105.2,145.8,103,143.7z"/>
		</g>
	</g>
	<g>
		<g>
			<g>
				<path class="st0" d="M198.3,94.8c-0.7-0.8-1.7-1.3-2.8-1.5l0,0l-20-4.2l-10.2-17.7c-1.5-2.6-4.8-3.5-7.4-2c-0.8,0.5-1.5,1.1-2,2
					l-10.2,17.7l-20,4.2c-2.9,0.6-4.8,3.5-4.2,6.4c0.2,0.9,0.6,1.8,1.3,2.5l13.7,15.2l-2.2,20.4c-0.3,3,1.9,5.6,4.9,5.9
					c0.9,0.1,1.9-0.1,2.7-0.4l18.8-8.3l18.4,8.3c2.7,1.3,5.9,0.2,7.2-2.5c0.4-0.9,0.6-1.9,0.5-2.9l-2.2-20.4l13.5-14.9
					C200.3,100.4,200.4,96.9,198.3,94.8z"/>
			</g>
		</g>
	</g>
	<g>
		<g>
			<path class="st0" d="M176.5,22.1C124,13.4,74.4,48.9,65.6,101.4c-1.7,10.5-1.7,21.1,0,31.6h19.6c-8.8-41.7,17.9-82.6,59.6-91.4
				s82.6,17.9,91.4,59.6c2.2,10.5,2.2,21.3,0,31.8h19.5C264.5,80.5,229,30.8,176.5,22.1z"/>
		</g>
	</g>
	<g>
		<g>
			<path class="st0" d="M263.9,168.3c-3.1-3.1-7.4-4.9-11.8-4.9H69.5c-4.4,0-8.7,1.8-11.8,4.9c-3.2,3.1-5.1,7.3-5.2,11.8v44.5
				c0,4.3,1.6,8.4,4.6,11.5l0.3,0.4c3.1,3.1,7.4,4.9,11.8,4.9h182.7c9.2,0.1,16.8-7.3,16.9-16.5c0-0.1,0-0.1,0-0.2v-44.5
				C268.8,175.6,267.1,171.4,263.9,168.3z"/>
		</g>
	</g>
</g>
</svg>
