<?xml version="1.0" encoding="utf-8"?>
<!-- Generator: Adobe Illustrator 25.2.3, SVG Export Plug-In . SVG Version: 6.00 Build 0)  -->
<svg version="1.1" id="Layer_1" xmlns="http://www.w3.org/2000/svg" xmlns:xlink="http://www.w3.org/1999/xlink" x="0px" y="0px"
	 viewBox="0 0 342.4 283" style="enable-background:new 0 0 342.4 283;" xml:space="preserve">
<style type="text/css">
	.st0{fill:#FFFFFF;}
</style>
<g id="XMLID_496_">
	<path id="XMLID_497_" class="st0" d="M26.5,136.1l69.1,25.8l26.8,86c1.7,5.5,8.5,7.5,12.9,3.9l38.5-31.4c4-3.3,9.8-3.5,14-0.4
		l69.5,50.5c4.8,3.5,11.6,0.9,12.8-4.9L321,20.7c1.3-6.3-4.9-11.6-10.9-9.3L26.4,120.9C19.4,123.6,19.5,133.5,26.5,136.1z
		 M118.1,148.2L253.2,65c2.4-1.5,4.9,1.8,2.8,3.7L144.5,172.4c-3.9,3.6-6.4,8.5-7.2,13.8l-3.8,28.1c-0.5,3.8-5.8,4.1-6.8,0.5
		l-14.6-51.3C110.5,157.6,112.9,151.4,118.1,148.2z"/>
</g>
</svg>
