<?xml version="1.0" encoding="utf-8"?>
<!-- Generator: Adobe Illustrator 25.2.3, SVG Export Plug-In . SVG Version: 6.00 Build 0)  -->
<svg version="1.1" id="Layer_1" xmlns="http://www.w3.org/2000/svg" xmlns:xlink="http://www.w3.org/1999/xlink" x="0px" y="0px"
	 viewBox="0 0 239.5 254.4" style="enable-background:new 0 0 239.5 254.4;" xml:space="preserve">
<style type="text/css">
	.st0{fill:#FFFFFF;}
</style>
<g>
	<path class="st0" d="M76.3,118.7c0-3.8-3.2-6.8-7.2-6.8H31.9c-4,0-7.2,3.1-7.2,6.8v95.8h51.6V118.7z"/>
	<path class="st0" d="M214.7,80c0-3.8-3.2-6.8-7.2-6.8h-37.2c-4,0-7.2,3.1-7.2,6.8v134.5h51.6V80z"/>
	<path class="st0" d="M145.5,131.3c0-3.8-3.2-6.8-7.2-6.8h-37.2c-4,0-7.2,3.1-7.2,6.8v83.3h51.5V131.3z"/>
	<path class="st0" d="M220.8,228.2H18.7c-4,0-7.2,3.1-7.2,6.8c0,3.8,3.2,6.8,7.2,6.8h202.1c4,0,7.2-3.1,7.2-6.8
		C228,231.3,224.7,228.2,220.8,228.2z"/>
	<path class="st0" d="M61.6,92.6c0.2,0,0.4,0,0.6,0c0.6-0.1,16.1-1.4,38.1-8.8c20.2-6.8,50-20.3,77.4-45.8c0.1-0.1,0.3-0.3,0.4-0.4
		V48c0,3.8,3.2,6.8,7.2,6.8c4,0,7.2-3.1,7.2-6.8V21c0-3.8-3.2-6.8-7.2-6.8H157c-4,0-7.2,3.1-7.2,6.8c0,3.8,3.2,6.8,7.2,6.8H168
		c-0.1,0.1-0.2,0.2-0.3,0.3c-25.4,23.6-53,36.2-71.7,42.5c-20.4,6.9-34.9,8.3-35.1,8.3c-3.9,0.3-6.9,3.7-6.5,7.4
		C54.8,89.9,57.9,92.6,61.6,92.6z"/>
</g>
</svg>
